<svg id="Layer_1" data-name="Layer 1" xmlns="http://www.w3.org/2000/svg" viewBox="0 0 80.75 73.5"><defs><style>.cls-1{fill:#440401;}</style></defs><title>Artboard 1</title><path class="cls-1" d="M76.69,14.12A30.24,30.24,0,0,1,68,16.51a15.17,15.17,0,0,0,6.66-8.38A30.34,30.34,0,0,1,65,11.81,15.15,15.15,0,0,0,39.22,25.62,43,43,0,0,1,8,9.79,15.16,15.16,0,0,0,12.7,30a15.08,15.08,0,0,1-6.86-1.89A15.16,15.16,0,0,0,18,43.16a15.18,15.18,0,0,1-6.84.26A15.16,15.16,0,0,0,25.3,53.93,30.45,30.45,0,0,1,2.87,60.21,42.87,42.87,0,0,0,26.09,67c28.12,0,44-23.75,43-45A30.83,30.83,0,0,0,76.69,14.12Z"/></svg>