<svg id="Layer_1" data-name="Layer 1" xmlns="http://www.w3.org/2000/svg" viewBox="0 0 87.5 73.25"><defs><style>.cls-1{fill:none;stroke:#440401;stroke-miterlimit:10;stroke-width:3px;}</style></defs><title>Artboard 1</title><path class="cls-1" d="M82.17,13.73a30.24,30.24,0,0,1-8.7,2.38,15.17,15.17,0,0,0,6.66-8.38,30.34,30.34,0,0,1-9.62,3.68A15.15,15.15,0,0,0,44.71,25.22,43,43,0,0,1,13.5,9.4a15.16,15.16,0,0,0,4.68,20.22,15.08,15.08,0,0,1-6.86-1.89,15.16,15.16,0,0,0,12.15,15,15.18,15.18,0,0,1-6.84.26A15.16,15.16,0,0,0,30.78,53.54,30.45,30.45,0,0,1,8.36,59.82a42.87,42.87,0,0,0,23.22,6.8c28.12,0,44-23.75,43-45A30.83,30.83,0,0,0,82.17,13.73Z"/></svg>